<svg width="29" height="21" viewBox="0 0 29 21" fill="none" xmlns="http://www.w3.org/2000/svg">
<path fill-rule="evenodd" clip-rule="evenodd" d="M14.6766 4.79439C18.736 4.79456 22.6402 6.35436 25.5822 9.15137C25.8037 9.36732 26.1578 9.36459 26.376 9.14527L28.4938 7.00799C28.6042 6.89675 28.6658 6.74607 28.6649 6.58929C28.664 6.43251 28.6007 6.28256 28.4889 6.17262C20.767 -1.22763 8.58492 -1.22763 0.863073 6.17262C0.751217 6.28248 0.687751 6.43239 0.686719 6.58917C0.685688 6.74595 0.747176 6.89667 0.857577 7.00799L2.97592 9.14527C3.19398 9.36492 3.54836 9.36765 3.76977 9.15137C6.71216 6.35417 10.6168 4.79438 14.6766 4.79439ZM14.6764 11.7477C16.9068 11.7476 19.0576 12.5766 20.7109 14.0737C20.9345 14.2861 21.2868 14.2815 21.5047 14.0633L23.62 11.926C23.7314 11.8139 23.7932 11.6618 23.7916 11.5038C23.79 11.3458 23.7251 11.195 23.6115 11.0852C18.5769 6.40199 10.7803 6.40199 5.74569 11.0852C5.63197 11.195 5.56709 11.3458 5.56559 11.5039C5.5641 11.662 5.62613 11.8141 5.73775 11.926L7.85244 14.0633C8.07042 14.2815 8.42267 14.2861 8.64628 14.0737C10.2985 12.5776 12.4475 11.7486 14.6764 11.7477ZM18.9138 16.4262C18.9171 16.5846 18.8548 16.7374 18.7416 16.8484L15.0826 20.541C14.9754 20.6496 14.8291 20.7106 14.6765 20.7106C14.524 20.7106 14.3777 20.6496 14.2705 20.541L10.6108 16.8484C10.4978 16.7373 10.4356 16.5845 10.4389 16.426C10.4423 16.2675 10.5109 16.1175 10.6285 16.0112C12.9653 14.0348 16.3878 14.0348 18.7245 16.0112C18.8421 16.1176 18.9106 16.2677 18.9138 16.4262Z" fill="white"/>
</svg>
